<?xml version="1.0" encoding="UTF-8" standalone="no"?>
<!-- Created with Inkscape (http://www.inkscape.org/) -->
<svg
   xmlns:dc="http://purl.org/dc/elements/1.1/"
   xmlns:cc="http://creativecommons.org/ns#"
   xmlns:rdf="http://www.w3.org/1999/02/22-rdf-syntax-ns#"
   xmlns:svg="http://www.w3.org/2000/svg"
   xmlns="http://www.w3.org/2000/svg"
   xmlns:sodipodi="http://sodipodi.sourceforge.net/DTD/sodipodi-0.dtd"
   xmlns:inkscape="http://www.inkscape.org/namespaces/inkscape"
   width="651.58374"
   height="269.81076"
   id="svg2"
   sodipodi:version="0.32"
   inkscape:version="0.46"
   version="1.0"
   sodipodi:docname="UnivNantes2.svg"
   inkscape:output_extension="org.inkscape.output.svg.inkscape">
  <defs
     id="defs4">
    <inkscape:perspective
       sodipodi:type="inkscape:persp3d"
       inkscape:vp_x="0 : 526.18109 : 1"
       inkscape:vp_y="0 : 1000 : 0"
       inkscape:vp_z="744.09448 : 526.18109 : 1"
       inkscape:persp3d-origin="372.04724 : 350.78739 : 1"
       id="perspective10" />
    <inkscape:perspective
       id="perspective2410"
       inkscape:persp3d-origin="372.04724 : 350.78739 : 1"
       inkscape:vp_z="744.09448 : 526.18109 : 1"
       inkscape:vp_y="0 : 1000 : 0"
       inkscape:vp_x="0 : 526.18109 : 1"
       sodipodi:type="inkscape:persp3d" />
  </defs>
  <sodipodi:namedview
     id="base"
     pagecolor="#ffffff"
     bordercolor="#666666"
     borderopacity="1.0"
     inkscape:pageopacity="0.0"
     inkscape:pageshadow="2"
     inkscape:zoom="1.4"
     inkscape:cx="331.51313"
     inkscape:cy="169.59113"
     inkscape:document-units="px"
     inkscape:current-layer="g2412"
     showgrid="false"
     inkscape:window-width="1280"
     inkscape:window-height="968"
     inkscape:window-x="-4"
     inkscape:window-y="-4" />
  <metadata
     id="metadata7">
    <rdf:RDF>
      <cc:Work
         rdf:about="">
        <dc:format>image/svg+xml</dc:format>
        <dc:type
           rdf:resource="http://purl.org/dc/dcmitype/StillImage" />
      </cc:Work>
    </rdf:RDF>
  </metadata>
  <g
     inkscape:label="Calque 1"
     inkscape:groupmode="layer"
     id="layer1"
     transform="translate(209.72885,-307.10806)">
    <g
       transform="matrix(1.25,0,0,-1.25,-31.843129,355.8127)"
       inkscape:label="UnivNantes2"
       id="g2412">
      <g
         transform="matrix(0.1,0,0,0.1,-179.14958,-213.43529)"
         id="g2414">
        <path
           id="path2416"
           style="fill:#163565;fill-opacity:1;fill-rule:nonzero;stroke:none"
           d="M 2942.39,1273.5 C 2873.21,1209.64 2780.84,1142.7 2600.36,1142.7 C 2498.95,1142.7 2413.25,1168.82 2326.15,1252.49 C 2249.61,1326.92 2198.2,1480.39 2198.2,1742.35 L 2198.2,1996.68 C 2198.2,2280.38 2198.2,2331.24 2201.77,2389.5 C 2205.38,2453.03 2219.64,2485.75 2267.67,2493.04 C 2289.01,2496.67 2299.64,2498.5 2312.1,2498.5 C 2319.24,2498.5 2326.3,2502.03 2326.3,2509.46 C 2326.3,2520.26 2317.5,2523.99 2297.89,2523.99 C 2244.56,2523.99 2137.74,2518.51 2121.71,2518.51 C 2105.66,2518.51 1997.27,2523.99 1917.08,2523.99 C 1897.57,2523.99 1888.68,2520.26 1888.68,2509.46 C 1888.68,2502.03 1895.76,2498.5 1902.86,2498.5 C 1918.93,2498.5 1949.1,2496.67 1963.42,2493.04 C 2022.09,2480.33 2036.38,2451.24 2039.89,2389.5 C 2043.44,2331.24 2043.44,2280.38 2043.44,1996.68 L 2043.44,1731.39 C 2043.44,1465.82 2111.08,1338.57 2198.2,1253.07 C 2324.55,1131.32 2504.27,1124 2564.81,1124 C 2669.74,1124 2803.12,1142.29 2931.2,1258.6 C 2935.91,1262.91 2940.14,1267.44 2944.71,1271.99 L 2942.39,1273.5" />
        <path
           id="path2418"
           style="fill:#d1cd11;fill-opacity:1;fill-rule:nonzero;stroke:none"
           d="M 2937.9,2374.55 C 3006.92,2438.37 3099.35,2505.27 3279.89,2505.27 C 3381.38,2505.27 3467,2479.21 3554.07,2395.69 C 3630.66,2321.11 3682.01,2167.66 3682.01,1905.83 L 3682.01,1651.29 C 3682.01,1367.68 3682.01,1316.81 3678.44,1258.6 C 3674.89,1194.98 3660.71,1162.24 3612.71,1155 C 3591.24,1151.28 3580.57,1149.54 3568.11,1149.54 C 3561.09,1149.54 3553.93,1145.82 3553.93,1138.68 C 3553.93,1127.71 3562.88,1124 3582.33,1124 C 3635.77,1124 3742.53,1129.5 3758.54,1129.5 C 3774.52,1129.5 3883.07,1124 3963.09,1124 C 3982.73,1124 3991.65,1127.71 3991.65,1138.68 C 3991.65,1145.82 3984.43,1149.54 3977.45,1149.54 C 3961.34,1149.54 3931.03,1151.28 3916.91,1155 C 3858.16,1167.72 3843.83,1196.77 3840.32,1258.6 C 3836.85,1316.81 3836.85,1367.68 3836.85,1651.29 L 3836.85,1916.71 C 3836.85,2182.21 3769.17,2309.4 3682.01,2394.88 C 3555.7,2516.71 3375.94,2523.99 3315.4,2523.99 C 3210.51,2523.99 3077.01,2505.77 2948.91,2389.5 C 2944.17,2385.1 2940.02,2380.57 2935.54,2376.04 L 2937.9,2374.55" />
        <path
           id="path2420"
           style="fill:#163565;fill-opacity:1;fill-rule:nonzero;stroke:none"
           d="M 489.285,365.504 C 420.563,365.504 368.41,413.461 368.41,484.695 L 368.41,713.285 L 419.605,713.285 L 419.605,487.125 C 419.605,441.098 447.098,412.551 489.285,412.551 C 531.453,412.551 559.461,441.098 559.461,487.125 L 559.461,713.285 L 610.617,713.285 L 610.617,484.695 C 610.617,413.461 558.008,365.504 489.285,365.504" />
        <path
           id="path2422"
           style="fill:#163565;fill-opacity:1;fill-rule:nonzero;stroke:none"
           d="M 900.742,368.473 L 744.738,611.074 L 744.738,368.473 L 693.582,368.473 L 693.582,713.285 L 740.504,713.285 L 896.445,471.117 L 896.445,713.285 L 947.645,713.285 L 947.645,368.473 L 900.742,368.473" />
        <path
           id="path2424"
           style="fill:#163565;fill-opacity:1;fill-rule:nonzero;stroke:none"
           d="M 1035.82,368.473 L 1087.0192,368.473 L 1087.0192,713.286 L 1035.82,713.286 L 1035.82,368.473 z" />
        <path
           id="path2426"
           style="fill:#163565;fill-opacity:1;fill-rule:nonzero;stroke:none"
           d="M 1284.18,368.473 L 1244.38,368.473 L 1133.45,713.285 L 1186.55,713.285 L 1264.29,462.418 L 1342.04,713.285 L 1396.08,713.285 L 1284.18,368.473" />
        <path
           id="path2428"
           style="fill:#163565;fill-opacity:1;fill-rule:nonzero;stroke:none"
           d="M 1442.5,368.473 L 1442.5,713.285 L 1658.2,713.285 L 1658.2,666.344 L 1493.7,666.344 L 1493.7,565.543 L 1634.04,565.543 L 1634.04,519.078 L 1493.7,519.078 L 1493.7,415.414 L 1658.2,415.414 L 1658.2,368.473 L 1442.5,368.473" />
        <path
           id="path2430"
           style="fill:#163565;fill-opacity:1;fill-rule:nonzero;stroke:none"
           d="M 1912.72,612.027 C 1912.72,578.125 1889.51,558.297 1855.38,558.297 L 1779.54,558.297 L 1779.54,666.344 L 1855.38,666.344 C 1889.51,666.344 1912.72,645.914 1912.72,612.027 z M 1974.34,368.473 L 1896.63,521.051 C 1934.52,531.66 1963.92,563.07 1963.92,612.527 C 1963.92,671.18 1923.16,713.285 1859.16,713.285 L 1728.36,713.285 L 1728.36,368.473 L 1779.54,368.473 L 1779.54,513.723 L 1843.54,513.723 L 1914.63,368.473 L 1974.34,368.473" />
        <path
           id="path2432"
           style="fill:#163565;fill-opacity:1;fill-rule:nonzero;stroke:none"
           d="M 2128.44,365.504 C 2077.7,365.504 2041.2,377.586 2008.97,411.094 L 2043.11,445.477 C 2067.73,420.23 2094.76,412.551 2129.33,412.551 C 2173.45,412.551 2199.03,431.898 2199.03,465.324 C 2199.03,480.336 2194.75,492.938 2185.76,501.117 C 2177.23,509.363 2168.7,512.785 2148.79,515.652 L 2108.96,521.508 C 2081.47,525.367 2059.68,535.043 2045,549.102 C 2028.41,565.047 2020.33,586.867 2020.33,614.934 C 2020.33,675.043 2063,716.148 2133.13,716.148 C 2177.68,716.148 2209,704.586 2237.89,676.973 L 2205.2,644.043 C 2184.37,664.348 2160.16,670.66 2131.72,670.66 C 2091.89,670.66 2070.1,647.406 2070.1,616.887 C 2070.1,604.305 2073.89,593.176 2082.89,584.957 C 2091.44,577.148 2105.16,571.379 2120.84,569.012 L 2159.23,563.07 C 2190.5,558.297 2208.04,550.531 2222.26,537.492 C 2240.76,521.051 2249.77,496.281 2249.77,466.738 C 2249.77,403.332 2199.03,365.504 2128.44,365.504" />
        <path
           id="path2434"
           style="fill:#163565;fill-opacity:1;fill-rule:nonzero;stroke:none"
           d="M 2318.49,368.473 L 2369.6892,368.473 L 2369.6892,713.286 L 2318.49,713.286 L 2318.49,368.473 z" />
        <path
           id="path2436"
           style="fill:#163565;fill-opacity:1;fill-rule:nonzero;stroke:none"
           d="M 2572.06,666.344 L 2572.06,368.473 L 2520.88,368.473 L 2520.88,666.344 L 2427.95,666.344 L 2427.95,713.285 L 2664.99,713.285 L 2664.99,666.344 L 2572.06,666.344" />
        <path
           id="path2438"
           style="fill:#163565;fill-opacity:1;fill-rule:nonzero;stroke:none"
           d="M 2838.45,746.672 L 2801.95,746.672 L 2837.52,825.148 L 2891.09,825.148 L 2838.45,746.672 z M 2723.29,368.473 L 2723.29,713.285 L 2938.94,713.285 L 2938.94,666.344 L 2774.46,666.344 L 2774.46,565.543 L 2914.75,565.543 L 2914.75,519.078 L 2774.46,519.078 L 2774.46,415.414 L 2938.94,415.414 L 2938.94,368.473 L 2723.29,368.473" />
        <path
           id="path2440"
           style="fill:#163565;fill-opacity:1;fill-rule:nonzero;stroke:none"
           d="M 3311.52,543.266 C 3311.52,495.805 3311.04,458.559 3293.51,438.668 C 3279.27,422.68 3260.32,415.414 3236.15,415.414 L 3174.05,415.414 L 3174.05,666.344 L 3236.15,666.344 C 3260.32,666.344 3279.27,659.035 3293.51,643.047 C 3311.04,623.199 3311.52,590.707 3311.52,543.266 z M 3362.71,543.266 C 3362.71,593.176 3365.08,643.547 3328.58,680.793 C 3307.26,702.633 3276.45,713.285 3241.38,713.285 L 3122.89,713.285 L 3122.89,368.473 L 3241.38,368.473 C 3276.45,368.473 3307.26,379.082 3328.58,400.879 C 3365.08,438.23 3362.71,493.418 3362.71,543.266" />
        <path
           id="path2442"
           style="fill:#163565;fill-opacity:1;fill-rule:nonzero;stroke:none"
           d="M 3438.58,368.473 L 3438.58,713.285 L 3654.21,713.285 L 3654.21,666.344 L 3489.75,666.344 L 3489.75,565.543 L 3630.04,565.543 L 3630.04,519.078 L 3489.75,519.078 L 3489.75,415.414 L 3654.21,415.414 L 3654.21,368.473 L 3438.58,368.473" />
        <path
           id="path2444"
           style="fill:#163565;fill-opacity:1;fill-rule:nonzero;stroke:none"
           d="M 4045.26,368.473 L 3889.34,611.074 L 3889.34,368.473 L 3838.14,368.473 L 3838.14,713.285 L 3885.04,713.285 L 4041.02,471.117 L 4041.02,713.285 L 4092.2,713.285 L 4092.2,368.473 L 4045.26,368.473" />
        <path
           id="path2446"
           style="fill:#163565;fill-opacity:1;fill-rule:nonzero;stroke:none"
           d="M 4336.76,482.266 L 4232.99,482.266 L 4285.6,635.281 L 4336.76,482.266 z M 4428.73,368.473 L 4305.03,713.285 L 4263.8,713.285 L 4140.06,368.473 L 4194.58,368.473 L 4217.79,437.711 L 4351.04,437.711 L 4374.23,368.473 L 4428.73,368.473" />
        <path
           id="path2448"
           style="fill:#163565;fill-opacity:1;fill-rule:nonzero;stroke:none"
           d="M 4683.77,368.473 L 4527.83,611.074 L 4527.83,368.473 L 4476.61,368.473 L 4476.61,713.285 L 4523.57,713.285 L 4679.54,471.117 L 4679.54,713.285 L 4730.7,713.285 L 4730.7,368.473 L 4683.77,368.473" />
        <path
           id="path2450"
           style="fill:#163565;fill-opacity:1;fill-rule:nonzero;stroke:none"
           d="M 4933.08,666.344 L 4933.08,368.473 L 4881.88,368.473 L 4881.88,666.344 L 4788.95,666.344 L 4788.95,713.285 L 5026.01,713.285 L 5026.01,666.344 L 4933.08,666.344" />
        <path
           id="path2452"
           style="fill:#163565;fill-opacity:1;fill-rule:nonzero;stroke:none"
           d="M 5084.29,368.473 L 5084.29,713.285 L 5299.98,713.285 L 5299.98,666.344 L 5135.49,666.344 L 5135.49,565.543 L 5275.78,565.543 L 5275.78,519.078 L 5135.49,519.078 L 5135.49,415.414 L 5299.98,415.414 L 5299.98,368.473 L 5084.29,368.473" />
        <path
           id="path2454"
           style="fill:#163565;fill-opacity:1;fill-rule:nonzero;stroke:none"
           d="M 5459.73,365.504 C 5408.98,365.504 5372.49,377.586 5340.27,411.094 L 5374.4,445.477 C 5399.06,420.23 5426.09,412.551 5460.68,412.551 C 5504.74,412.551 5530.36,431.898 5530.36,465.324 C 5530.36,480.336 5526.08,492.938 5517.07,501.117 C 5508.56,509.363 5500.01,512.785 5480.12,515.652 L 5440.3,521.508 C 5412.8,525.367 5390.98,535.043 5376.29,549.102 C 5359.72,565.047 5351.64,586.867 5351.64,614.934 C 5351.64,675.043 5394.33,716.148 5464.46,716.148 C 5509.02,716.148 5540.29,704.586 5569.23,676.973 L 5536.5,644.043 C 5515.66,664.348 5491.49,670.66 5463.01,670.66 C 5423.23,670.66 5401.43,647.406 5401.43,616.887 C 5401.43,604.305 5405.21,593.176 5414.22,584.957 C 5422.75,577.148 5436.47,571.379 5452.13,569.012 L 5490.52,563.07 C 5521.8,558.297 5539.35,550.531 5553.55,537.492 C 5572.05,521.051 5581.08,496.281 5581.08,466.738 C 5581.08,403.332 5530.36,365.504 5459.73,365.504" />
      </g>
    </g>
  </g>
</svg>
